Format                           : AVI
Format/Info                      : Audio Video Interleave
File size                        : 378 MiB
Duration                         : 1h 17mn
Overall bit rate                 : 682 Kbps
Writing application              : MEncoder SVN-r29352(20090610-gcc4.3.3)
Writing library                  : Boilsoft AVI tool build 1/release

Video
ID                               : 0
Format                           : AVC
Format/Info                      : Advanced Video Codec
Format profile                   : Baseline@L2.1
Format settings, CABAC           : No
Format settings, ReFrames        : 1 frame
Format settings, GOP             : M=1, N=4
Codec ID                         : avc1
Duration                         : 1h 17mn
Bit rate                         : 545 Kbps
Width                            : 320 pixels
Height                           : 180 pixels
Display aspect ratio             : 16:9
Frame rate                       : 23.976 fps
Color space                      : YUV
Chroma subsampling               : 4:2:0
Bit depth                        : 8 bits
Scan type                        : Progressive
Bits/(Pixel*Frame)               : 0.395
Stream size                      : 301 MiB (80%)
Writing library                  : x264 core 67 r1163+17 7d945df
Encoding settings                : cabac=0 / ref=1 / deblock=1:0:0 / analyse=0x1:0x111 / me=dia / subme=6 / psy_rd=1.0:0.0 / mixed_ref=0 / me_range=16 / chroma_me=1 / trellis=0 / 8x8dct=0 / cqm=0 / deadzone=21,11 / chroma_qp_offset=-2 / threads=1 / nr=0 / decimate=1 / mbaff=0 / bframes=0 / keyint=250 / keyint_min=25 / scenecut=40 / rc=abr / bitrate=545 / ratetol=1.0 / qcomp=0.60 / qpmin=10 / qpmax=51 / qpstep=4 / ip_ratio=1.40 / aq=1:1.00

Audio
ID                               : 1
Format                           : MPEG Audio
Format version                   : Version 1
Format profile                   : Layer 3
Mode                             : Joint stereo
Mode extension                   : MS Stereo
Codec ID                         : 55
Codec ID/Hint                    : MP3
Duration                         : 1h 17mn
Bit rate mode                    : Constant
Bit rate                         : 128 Kbps
Channel(s)                       : 2 channels
Sampling rate                    : 48.0 KHz
Compression mode                 : Lossy
Stream size                      : 70.9 MiB (19%)
Alignment                        : Split accross interleaves
Interleave, duration             : 42 ms (1.00 video frame)
Interleave, preload duration     : 500 ms

Screenshots: 
http://store.picbg.net/pubpic/8A/79/8804299e382e8a79.jpg 
http://store.picbg.net/pubpic/99/73/3a94ec680bfd9973.jpg